# Blender v2.79 (sub 0) OBJ File: 'rock.blend'
# www.blender.org
mtllib rock.mtl
o Roock_Icosphere
v 0.036400 0.483216 -0.323146
v 0.447842 0.422372 0.025173
v 0.013049 0.023036 -0.303018
v 0.084065 -0.054852 -0.129753
v 0.181644 0.557300 -0.186547
v 0.007176 -0.054391 0.056001
v 0.198966 0.182510 -0.350699
v -0.269775 0.033263 0.248565
v -0.138918 0.319130 -0.392434
v -0.193184 0.460622 -0.270618
v -0.083100 0.537008 0.145593
v -0.433451 0.292104 0.277728
v -0.341942 0.108846 -0.060456
v -0.298242 0.348156 -0.037152
v -0.346898 0.508673 0.486760
v -0.178260 0.190825 -0.317384
v 0.329559 -0.029768 -0.012080
v -0.157790 0.007532 0.070375
v 0.427386 0.047971 0.130640
v -0.387196 0.292163 0.419230
v 0.090665 0.341724 -0.444962
v 0.320961 0.624851 0.089835
v -0.178189 0.600304 0.316369
v 0.252647 -0.007561 0.217934
v 0.114339 0.625390 0.043469
v -0.453927 0.134577 0.117734
v -0.393153 0.508614 0.345258
v 0.294040 0.122764 0.381911
v 0.508726 0.266813 0.125557
v 0.453311 0.331619 0.298254
v -0.450498 0.227096 0.140641
v 0.366791 0.170141 -0.186154
v -0.382180 0.338245 -0.032702
v -0.019263 0.787000 0.424671
v 0.282448 0.723166 0.300262
v 0.403734 0.403439 -0.143818
v -0.369327 0.224237 -0.196375
v -0.104474 0.673503 0.547511
v 0.353913 0.585493 0.408296
v 0.157290 0.521153 0.592161
v -0.220091 0.125841 0.412973
v 0.081971 0.190002 0.525153
v -0.226296 0.334221 -0.040769
v -0.211991 0.412513 -0.140228
v -0.197279 0.410149 0.068385
v -0.062544 0.149921 0.479459
v 0.183496 0.131019 0.460590
v 0.121294 0.339003 0.588308
v -0.168313 0.464750 0.094777
v 0.028879 -0.022890 -0.231463
v -0.259520 0.044484 0.315073
v -0.316890 0.217595 0.432895
v -0.090719 -0.026305 0.047640
v 0.397028 0.555649 0.028217
v 0.410752 0.438747 0.347718
v 0.489650 0.333160 0.079240
v 0.041679 0.617987 0.580101
v 0.273783 0.577853 0.534194
v 0.318090 0.519828 -0.209870
v -0.247688 0.571021 0.534059
v -0.368997 0.144666 -0.146285
v -0.192400 0.402073 -0.356094
v 0.335032 0.694743 0.334424
v -0.081276 0.780580 0.493637
v 0.115856 0.064541 -0.321853
v 0.163966 0.287000 -0.407509
v 0.158179 0.781987 0.384287
v 0.306199 0.649728 0.187579
v -0.120300 0.707425 0.368621
v -0.467544 0.275516 0.328621
v 0.407367 0.224382 0.371589
v 0.490999 0.326782 0.180706
v 0.496120 0.140878 0.136074
v 0.267708 0.049333 0.287457
v 0.008190 0.603727 0.102545
v 0.230092 0.643271 0.078560
v -0.408989 0.288236 0.067662
v -0.275778 0.214671 -0.262483
v -0.092134 0.548752 0.237317
v -0.312371 0.552662 0.334771
v -0.420746 0.242850 0.223310
v 0.285478 0.192833 -0.293243
v -0.030436 0.297779 -0.438470
v -0.089183 0.089801 -0.327934
v -0.402358 0.138368 0.037818
v -0.501274 0.171111 0.116159
v 0.123404 -0.060404 0.179324
v -0.394685 0.395836 0.299240
v -0.417172 0.546154 0.413033
v -0.336867 0.395911 0.476118
v 0.359493 0.023145 0.165708
v 0.378739 0.001284 0.075010
v 0.028193 -0.049391 -0.061323
v 0.219520 -0.066417 -0.063933
v 0.362808 0.038971 -0.084573
v 0.123856 0.589920 -0.071080
v -0.243276 0.053457 -0.029625
v -0.172168 0.011725 0.201356
v -0.222622 0.463399 -0.180547
v -0.411806 0.304676 -0.135710
v 0.410058 0.290060 -0.167678
v -0.159924 0.266485 -0.346652
v -0.318626 0.368012 -0.028753
v 0.094579 0.430315 -0.421755
v 0.105370 0.522190 -0.244656
v -0.098268 0.474643 -0.286200
v 0.429322 0.385304 -0.032924
v -0.383256 0.085621 0.193113
v -0.204954 0.368281 0.034005
v -0.200234 0.354082 -0.107641
v -0.280856 0.322338 -0.045344
v -0.265645 0.362472 0.093538
v -0.284035 0.365427 -0.167227
v -0.157831 0.442919 -0.035306
v 0.114113 0.678532 0.250141
v -0.312244 0.391937 -0.241343
v -0.317858 0.679416 0.442957
v -0.267856 0.374581 0.198277
v -0.289077 0.074769 0.113887
v 0.455685 0.154652 0.220650
v -0.431852 0.409285 0.373271
v 0.214576 -0.009011 -0.207030
v 0.008922 0.170149 -0.388837
v -0.107404 0.535779 -0.065991
v 0.179970 0.788332 0.497573
v 0.478297 0.142474 0.041088
v -0.067376 0.401261 -0.411310
v 0.317600 0.575165 -0.062545
v -0.476015 0.217845 -0.029590
v 0.443113 0.526993 0.138290
v 0.226979 -0.062266 0.078184
v 0.290299 0.437195 -0.357632
v -0.184568 0.033317 -0.221946
v -0.473607 0.131388 0.263489
v -0.122269 0.369747 0.580638
v 0.313038 0.318185 0.518453
v -0.000603 -0.026821 0.315875
v -0.179612 0.389361 -0.035906
v -0.253778 0.346649 0.037593
v -0.258219 0.341389 -0.118078
vt 0.148324 0.520691
vt 0.112156 0.551170
vt 0.057949 0.494058
vt 0.130194 0.466692
vt 0.206431 0.467442
vt 0.196218 0.535956
vt 0.207261 0.634454
vt 0.042026 0.893426
vt 0.063038 0.877450
vt 0.063038 1.000000
vt 0.031519 0.962688
vt 0.000000 0.925377
vt 0.031519 0.840138
vt 0.063038 0.754900
vt 0.047367 0.241439
vt 0.074108 0.219095
vt 0.096675 0.331339
vt 0.045581 0.295489
vt 0.000000 0.269334
vt 0.025470 0.201336
vt 0.053680 0.134682
vt 0.106962 0.179956
vt 0.142236 0.192651
vt 0.113632 0.118404
vt 0.169050 0.097183
vt 0.075075 0.573426
vt 0.083507 0.619066
vt 0.009895 0.611883
vt 0.020320 0.545794
vt 0.192034 0.184121
vt 0.224308 0.122937
vt 0.317540 0.161654
vt 0.202572 0.226279
vt 0.814865 0.155419
vt 0.754230 0.198557
vt 0.744802 0.127693
vt 0.825133 0.103531
vt 0.914428 0.094516
vt 0.850761 0.181085
vt 0.787429 0.262441
vt 0.307784 0.275655
vt 0.301548 0.333583
vt 0.256485 0.307103
vt 0.275095 0.242016
vt 0.328926 0.266953
vt 0.330346 0.365721
vt 0.964923 0.624391
vt 0.942494 0.607988
vt 0.988533 0.520760
vt 1.000000 0.590015
vt 1.000000 0.663094
vt 0.947385 0.678118
vt 0.900588 0.675539
vt 0.232217 0.542933
vt 0.256033 0.500055
vt 0.292317 0.548599
vt 0.238451 0.588644
vt 0.160456 0.712830
vt 0.148392 0.754900
vt 0.061175 0.736752
vt 0.114483 0.690213
vt 0.221423 0.691795
vt 0.258261 0.754900
vt 0.545447 0.784312
vt 0.580688 0.778879
vt 0.605543 0.857752
vt 0.540253 0.826465
vt 0.475878 0.794476
vt 0.509269 0.755055
vt 0.552141 0.696583
vt 0.194365 0.355405
vt 0.192992 0.305905
vt 0.241877 0.369380
vt 0.225181 0.427348
vt 0.158797 0.386578
vt 0.207225 0.853918
vt 0.193911 0.766614
vt 0.226504 0.754900
vt 0.226504 0.856421
vt 0.226504 0.957941
vt 0.220539 0.941222
vt 0.214574 0.924504
vt 0.187946 0.851416
vt 0.161317 0.778328
vt 0.634690 0.249231
vt 0.650886 0.199985
vt 0.721782 0.245494
vt 0.674648 0.303488
vt 0.610869 0.338081
vt 0.587418 0.255748
vt 0.557453 0.158811
vt 0.910285 0.597483
vt 0.865428 0.637755
vt 0.852444 0.573589
vt 0.915289 0.549253
vt 0.117841 0.075436
vt 0.087368 0.070713
vt 0.121195 0.022733
vt 0.144974 0.049849
vt 0.220939 0.253513
vt 0.159474 0.030990
vt 0.183590 0.048195
vt 0.149819 0.004044
vt 0.191317 0.004780
vt 0.548407 0.293780
vt 0.545223 0.370311
vt 0.479421 0.369474
vt 0.510882 0.271502
vt 0.812038 0.064676
vt 0.749989 0.062443
vt 0.762485 0.000000
vt 0.849310 0.034571
vt 0.330807 0.526725
vt 0.321185 0.480492
vt 0.350052 0.451511
vt 0.350052 0.535351
vt 0.350052 0.619190
vt 0.321185 0.564332
vt 0.292317 0.509473
vt 0.461372 0.647288
vt 0.516209 0.607439
vt 0.457433 0.703750
vt 0.368929 0.706630
vt 0.421960 0.617104
vt 0.502610 0.523825
vt 0.220260 0.076906
vt 0.245038 0.070351
vt 0.074369 0.664435
vt 0.019262 0.682308
vt 0.281210 0.377547
vt 0.289065 0.419791
vt 0.460832 0.740723
vt 0.413331 0.761081
vt 0.277897 0.058662
vt 0.263769 0.015075
vt 0.351697 0.030150
vt 0.328926 0.087993
vt 0.631223 0.679916
vt 0.656855 0.655450
vt 0.677627 0.726386
vt 0.634387 0.741436
vt 0.605543 0.752810
vt 0.615219 0.654842
vt 0.648875 0.561927
vt 0.708071 0.654947
vt 0.733685 0.608776
vt 0.814480 0.649855
vt 0.749659 0.703983
vt 0.675359 0.801378
vt 0.706823 0.831694
vt 0.657554 0.882636
vt 0.626207 0.821186
vt 0.605543 0.752810
vt 0.689603 0.757285
vt 0.752647 0.786784
vt 0.881079 0.227547
vt 0.936134 0.205206
vt 0.936134 0.341269
vt 0.853551 0.306749
vt 0.731399 0.874075
vt 0.710267 0.930232
vt 0.773662 0.866331
vt 0.773662 0.970902
vt 0.398189 0.579272
vt 0.358991 0.611472
vt 0.394368 0.513013
vt 0.430965 0.515209
vt 0.482804 0.470731
vt 0.485913 0.448660
vt 0.605543 0.401358
vt 0.541063 0.458115
vt 0.923756 0.854497
vt 0.967590 0.831211
vt 0.967590 0.969280
vt 0.901838 0.935175
vt 0.836087 0.901070
vt 0.901838 0.797106
vt 0.967590 0.693142
vt 0.914783 0.500222
vt 0.872175 0.491864
vt 0.908263 0.401358
vt 0.954131 0.459148
vt 0.676587 0.142279
vt 0.639019 0.088611
vt 0.703982 0.047268
vt 0.737493 0.143059
vt 0.765689 0.545379
vt 0.836087 0.539631
vt 0.730491 0.479116
vt 0.836087 0.401358
vt 0.587222 0.053041
vt 0.517505 0.077531
vt 0.488199 0.028348
vt 0.603447 0.009203
vt 0.461705 0.250152
vt 0.415171 0.304869
vt 0.382279 0.206454
vt 0.456700 0.178903
vt 0.458623 0.116366
vt 0.410549 0.104189
vt 0.128558 0.834401
vt 0.112178 0.874152
vt 0.063038 0.846863
vt 0.112178 0.800881
vt 0.161317 0.754900
vt 0.161317 0.828171
vt 0.161317 0.901441
vt 0.262880 0.822913
vt 0.262388 0.890471
vt 0.226504 0.890891
vt 0.227487 0.823351
vt 0.228470 0.755810
vt 0.263371 0.755355
vt 0.298272 0.754900
vt 0.298272 0.822475
vt 0.298272 0.890050
vt 0.396260 0.917558
vt 0.408518 0.977104
vt 0.400731 0.974503
vt 0.376214 0.916128
vt 0.351698 0.857752
vt 0.384002 0.858013
vt 0.416306 0.858273
vt 0.416306 0.918989
vt 0.416306 0.979704
vn -0.0912 0.8937 -0.4393
vn -0.0541 0.9131 -0.4040
vn 0.5560 0.3876 -0.7353
vn 0.0803 0.5582 -0.8258
vn -0.2633 0.5005 -0.8247
vn -0.2141 0.8915 -0.3993
vn -0.5287 0.8447 -0.0834
vn 0.8745 0.2657 -0.4057
vn 0.9075 0.2306 -0.3509
vn 0.4675 0.8146 -0.3434
vn 0.7197 0.6065 -0.3378
vn 0.8843 0.4658 -0.0318
vn 0.9580 0.1547 -0.2415
vn 0.9071 -0.2947 -0.3005
vn -0.0686 -0.7064 -0.7045
vn -0.0832 -0.9016 -0.4244
vn -0.4631 -0.7726 -0.4342
vn -0.3193 -0.5160 -0.7948
vn -0.0717 -0.4095 -0.9095
vn 0.2319 -0.5811 -0.7801
vn 0.3961 -0.7391 -0.5448
vn -0.0643 -0.9796 -0.1900
vn -0.1872 -0.9796 -0.0735
vn 0.2207 -0.9598 -0.1735
vn 0.2060 -0.9708 0.1230
vn 0.0214 0.9196 -0.3922
vn -0.0937 0.9442 -0.3158
vn 0.5631 0.7179 -0.4092
vn -0.1694 -0.9855 -0.0027
vn 0.0773 -0.9692 0.2338
vn -0.0630 -0.8944 0.4427
vn -0.3187 -0.9478 -0.0080
vn 0.4245 -0.3801 -0.8217
vn 0.3569 -0.2097 -0.9103
vn 0.6409 -0.3334 -0.6914
vn -0.3324 -0.9430 -0.0167
vn -0.4124 -0.9062 -0.0929
vn -0.4000 -0.9064 -0.1353
vn -0.3173 -0.9482 0.0107
vn -0.3364 -0.8362 0.4331
vn -0.8533 -0.4426 0.2755
vn -0.5137 -0.1655 -0.8418
vn -0.5359 -0.2427 -0.8086
vn -0.7438 0.5348 -0.4010
vn -0.5536 0.3901 -0.7357
vn -0.2101 -0.1691 -0.9629
vn -0.3758 0.8507 -0.3674
vn -0.6221 0.7773 0.0939
vn -0.6182 0.7857 -0.0226
vn -0.5001 0.7218 -0.4783
vn -0.1894 0.8627 -0.4688
vn -0.4179 0.8985 -0.1339
vn -0.7314 0.6766 -0.0853
vn -0.5873 0.7068 -0.3943
vn -0.7443 0.3681 -0.5572
vn -0.8135 0.5513 -0.1851
vn -0.9838 0.0435 0.1738
vn -0.9811 0.1310 0.1423
vn -0.6695 0.3904 -0.6319
vn -0.5507 -0.8293 -0.0946
vn -0.4759 -0.8781 -0.0493
vn -0.5084 -0.8362 -0.2057
vn -0.9777 -0.0499 -0.2041
vn -0.6861 -0.5832 -0.4348
vn 0.5598 0.8282 -0.0248
vn 0.0236 0.8608 0.5084
vn -0.0703 0.9968 0.0386
vn -0.0788 0.9523 -0.2948
vn -0.0210 0.9272 -0.3738
vn 0.2342 0.9722 0.0049
vn 0.0310 0.8811 0.4718
vn -0.5993 0.0424 0.7994
vn -0.3970 0.1966 0.8965
vn -0.6456 0.7587 0.0868
vn -0.9173 0.3851 0.1008
vn -0.5713 -0.1402 0.8087
vn -0.2331 -0.1846 0.9547
vn -0.4975 -0.2675 -0.8251
vn -0.5921 -0.2275 -0.7731
vn 0.5432 -0.8248 -0.1571
vn 0.7151 -0.5616 -0.4162
vn 0.5980 -0.8009 0.0303
vn -0.4116 -0.9113 0.0025
vn 0.6928 -0.6924 0.2015
vn 0.4750 -0.7747 0.4175
vn 0.9222 -0.3605 0.1397
vn 0.7794 -0.4199 0.4649
vn -0.6274 -0.2013 0.7522
vn -0.4414 -0.4288 0.7882
vn 0.1341 -0.0238 -0.9907
vn 0.4316 0.8831 -0.1841
vn 0.0833 0.9616 -0.2613
vn 0.3638 0.8834 -0.2954
vn -0.3326 0.5630 -0.7566
vn -0.4188 0.5388 -0.7309
vn -0.3088 0.7274 -0.6128
vn 0.3607 -0.8257 0.4337
vn 0.4158 -0.7519 0.5116
vn -0.1481 0.9481 -0.2814
vn -0.4859 -0.8437 -0.2279
vn -0.9857 -0.1578 -0.0588
vn -0.6621 0.3999 -0.6337
vn 0.4710 -0.6759 0.5669
vn 0.7645 -0.3416 0.5467
vn 0.5966 -0.1990 0.7775
vn 0.2644 -0.6502 0.7123
vn 0.9990 0.0049 0.0441
vn 0.9683 0.1192 0.2196
vn 0.9218 0.0586 0.3832
vn 0.8967 0.1760 0.4060
vn -0.7522 0.6360 0.1725
vn -0.6878 0.7160 0.1194
vn 0.7602 -0.3373 -0.5553
vn 0.8983 -0.0277 -0.4384
vn -0.6548 0.7520 0.0751
vn -0.8501 0.3861 -0.3580
vn -0.1465 0.9333 -0.3278
vn -0.2639 0.8885 0.3754
vn 0.3280 0.7918 0.5151
vn 0.0900 0.9481 -0.3051
vn 0.2951 0.8809 -0.3699
vn 0.7499 0.6568 0.0785
vn 0.9057 0.3218 -0.2757
vn -0.7042 -0.1833 -0.6859
vn -0.2123 0.3469 0.9135
vn 0.0039 0.2457 0.9693
vn 0.8594 0.2784 0.4289
vn 0.5959 0.2307 0.7692
vn 0.1979 0.0903 0.9760
vn 0.1294 -0.2248 0.9658
vn -0.2911 -0.6016 0.7439
vn -0.1455 -0.5823 0.7998
vn 0.0485 -0.5273 0.8483
vn -0.4690 0.8811 -0.0598
vn -0.6740 0.6710 -0.3091
vn -0.9065 0.4221 0.0081
vn -0.6840 0.6234 0.3788
vn -0.7376 0.4279 0.5223
vn -0.9116 0.4024 0.0831
vn -0.7735 0.5819 -0.2512
usemtl Rock
s 1
f 1/1/1 105/2/2 132/3/3 104/4/4
f 1/1/1 104/4/4 127/5/5 106/6/6
f 1/1/1 106/6/6 124/7/7 105/2/2
f 2/8/8 107/9/9 128/10/10 54/11/11
f 2/8/8 54/11/11 130/12/12 56/13/13
f 2/8/8 56/13/13 126/14/14 107/9/9
f 3/15/15 50/16/16 133/17/17 84/18/18
f 3/15/15 84/18/18 123/19/19 65/20/20
f 3/15/15 65/20/20 122/21/21 50/16/16
f 4/22/22 93/23/23 133/17/17 50/16/16
f 4/22/22 50/16/16 122/21/21 94/24/24
f 4/22/22 94/24/24 131/25/25 93/23/23
f 5/26/26 105/2/2 124/7/7 96/27/27
f 5/26/26 96/27/27 128/28/10 59/29/28
f 5/26/26 59/29/28 132/3/3 105/2/2
f 6/30/29 93/23/23 131/25/25 87/31/30
f 6/30/29 87/31/30 137/32/31 53/33/32
f 6/30/29 53/33/32 133/17/17 93/23/23
f 7/34/33 65/35/20 123/36/19 66/37/34
f 7/34/33 66/37/34 132/38/3 82/39/35
f 7/34/33 82/39/35 122/40/21 65/35/20
f 8/41/36 108/42/37 119/43/38 98/44/39
f 8/41/36 98/44/39 137/32/31 51/45/40
f 8/41/36 51/45/40 134/46/41 108/42/37
f 9/47/42 102/48/43 116/49/44 62/50/45
f 9/47/42 62/50/45 127/51/5 83/52/46
f 9/47/42 83/52/46 123/53/19 102/48/43
f 10/54/47 106/6/6 127/5/5 62/55/45
f 10/54/47 62/55/45 116/56/44 99/57/48
f 10/54/47 99/57/48 124/7/7 106/6/6
f 11/58/49 79/59/50 115/60/51 75/61/52
f 11/58/49 75/61/52 124/7/7 49/62/53
f 11/58/49 49/62/53 118/63/54 79/59/50
f 12/64/55 81/65/56 134/66/41 70/67/57
f 12/64/55 70/67/57 121/68/58 88/69/59
f 12/64/55 88/69/59 118/70/54 81/65/56
f 13/71/60 97/72/61 119/43/38 85/73/62
f 13/71/60 85/73/62 129/74/63 61/75/64
f 13/71/60 61/75/64 133/17/17 97/72/61
f 14/76/65 113/77/66 116/78/44 103/79/67
f 14/76/65 103/79/67 118/80/54 112/81/68
f 14/76/65 112/81/68 139/82/69 111/83/70
f 14/76/65 111/83/70 140/84/71 113/77/66
f 15/85/72 60/86/73 117/87/74 89/88/75
f 15/85/72 89/88/75 121/89/58 90/90/76
f 15/85/72 90/90/76 135/91/77 60/86/73
f 16/92/78 102/48/43 123/53/19 84/93/18
f 16/92/78 84/93/18 133/94/17 78/95/79
f 16/92/78 78/95/79 116/49/44 102/48/43
f 17/96/80 94/24/24 122/21/21 95/97/81
f 17/96/80 95/97/81 126/98/14 92/99/82
f 17/96/80 92/99/82 131/25/25 94/24/24
f 18/100/83 53/33/32 137/32/31 98/44/39
f 18/100/83 98/44/39 119/43/38 97/72/61
f 18/100/83 97/72/61 133/17/17 53/33/32
f 19/101/84 91/102/85 131/25/25 92/99/82
f 19/101/84 92/99/82 126/98/14 73/103/86
f 19/101/84 73/103/86 120/104/87 91/102/85
f 20/105/88 90/90/76 121/89/58 70/106/57
f 20/105/88 70/106/57 134/107/41 52/108/89
f 20/105/88 52/108/89 135/91/77 90/90/76
f 21/109/90 83/110/46 127/111/5 104/112/4
f 21/109/90 104/112/4 132/38/3 66/37/34
f 21/109/90 66/37/34 123/36/19 83/110/46
f 22/113/91 54/114/11 128/115/10 76/116/92
f 22/113/91 76/116/92 115/117/51 68/118/93
f 22/113/91 68/118/93 130/119/12 54/114/11
f 23/120/94 79/121/50 118/70/54 80/122/95
f 23/120/94 80/122/95 117/123/74 69/124/96
f 23/120/94 69/124/96 115/125/51 79/121/50
f 24/126/97 74/127/98 137/32/31 87/31/30
f 24/126/97 87/31/30 131/25/25 91/102/85
f 24/126/97 91/102/85 120/104/87 74/127/98
f 25/128/99 96/27/27 124/7/7 75/61/52
f 25/128/99 75/61/52 115/60/51 76/129/92
f 25/128/99 76/129/92 128/28/10 96/27/27
f 26/130/100 86/131/101 129/74/63 85/73/62
f 26/130/100 85/73/62 119/43/38 108/42/37
f 26/130/100 108/42/37 134/46/41 86/131/101
f 27/132/102 88/69/59 121/68/58 89/133/75
f 27/132/102 89/133/75 117/123/74 80/122/95
f 27/132/102 80/122/95 118/70/54 88/69/59
f 28/134/103 74/127/98 120/104/87 71/135/104
f 28/134/103 71/135/104 136/136/105 47/137/106
f 28/134/103 47/137/106 137/32/31 74/127/98
f 29/138/107 72/139/108 120/140/87 73/141/86
f 29/138/107 73/141/86 126/142/14 56/143/13
f 29/138/107 56/143/13 130/144/12 72/139/108
f 30/145/109 55/146/110 136/147/105 71/148/104
f 30/145/109 71/148/104 120/140/87 72/139/108
f 30/145/109 72/139/108 130/144/12 55/146/110
f 31/149/111 77/150/112 129/151/63 86/152/101
f 31/149/111 86/152/101 134/153/41 81/154/56
f 31/149/111 81/154/56 118/155/54 77/150/112
f 32/156/113 101/157/114 126/158/14 95/159/81
f 32/156/113 95/159/81 122/40/21 82/39/35
f 32/156/113 82/39/35 132/38/3 101/157/114
f 33/160/115 100/161/116 129/151/63 77/150/112
f 33/160/115 77/150/112 118/155/54 103/162/67
f 33/160/115 103/162/67 116/163/44 100/161/116
f 34/164/117 69/124/96 117/123/74 64/165/118
f 34/164/117 64/165/118 125/166/119 67/167/120
f 34/164/117 67/167/120 115/125/51 69/124/96
f 35/168/121 67/167/120 125/166/119 63/169/122
f 35/168/121 63/169/122 130/170/12 68/171/93
f 35/168/121 68/171/93 115/125/51 67/167/120
f 36/172/123 101/173/114 132/174/3 59/175/28
f 36/172/123 59/175/28 128/176/10 107/177/9
f 36/172/123 107/177/9 126/178/14 101/173/114
f 37/179/124 61/180/64 129/181/63 100/182/116
f 37/179/124 100/182/116 116/49/44 78/95/79
f 37/179/124 78/95/79 133/94/17 61/180/64
f 38/183/125 60/86/73 135/91/77 57/184/126
f 38/183/125 57/184/126 125/185/119 64/186/118
f 38/183/125 64/186/118 117/87/74 60/86/73
f 39/187/127 58/188/128 136/147/105 55/146/110
f 39/187/127 55/146/110 130/144/12 63/189/122
f 39/187/127 63/189/122 125/190/119 58/188/128
f 40/191/129 57/184/126 135/91/77 48/192/130
f 40/191/129 48/192/130 136/193/105 58/194/128
f 40/191/129 58/194/128 125/185/119 57/184/126
f 41/195/131 51/196/40 137/197/31 46/198/132
f 41/195/131 46/198/132 135/91/77 52/108/89
f 41/195/131 52/108/89 134/107/41 51/196/40
f 42/199/133 46/198/132 137/197/31 47/200/106
f 42/199/133 47/200/106 136/193/105 48/192/130
f 42/199/133 48/192/130 135/91/77 46/198/132
f 43/201/134 109/202/135 138/203/136 110/204/137
f 43/201/134 110/204/137 140/205/71 111/206/70
f 43/201/134 111/206/70 139/207/69 109/202/135
f 44/208/138 114/209/139 124/210/7 99/211/48
f 44/208/138 99/211/48 116/212/44 113/213/66
f 44/208/138 113/213/66 140/214/71 110/215/137
f 44/208/138 110/215/137 138/216/136 114/209/139
f 45/217/140 112/218/68 118/219/54 49/220/53
f 45/217/140 49/220/53 124/221/7 114/222/139
f 45/217/140 114/222/139 138/223/136 109/224/135
f 45/217/140 109/224/135 139/225/69 112/218/68
